<svg width="73" height="72" viewBox="0 0 73 72" fill="none" xmlns="http://www.w3.org/2000/svg">
<path d="M13.0869 37.5H21.6454C22.3411 37.5 22.689 37.5 22.9509 37.6888C23.2128 37.8775 23.3228 38.2075 23.5428 38.8675L25.6311 45.1325C25.8511 45.7925 25.9611 46.1225 26.223 46.3112C26.4849 46.5 26.8327 46.5 27.5284 46.5H45.6454C46.3411 46.5 46.689 46.5 46.9509 46.3112C47.2127 46.1225 47.3227 45.7925 47.5428 45.1325L47.5428 45.1325L49.6311 38.8675C49.8511 38.2075 49.9611 37.8775 50.223 37.6888C50.4849 37.5 50.8327 37.5 51.5284 37.5H60.0869C61.0297 37.5 61.5011 37.5 61.794 37.7929C62.0869 38.0858 62.0869 38.5572 62.0869 39.5V51.5C62.0869 53.3856 62.0869 54.3284 61.5011 54.9142C60.9153 55.5 59.9725 55.5 58.0869 55.5H15.0869C13.2013 55.5 12.2585 55.5 11.6727 54.9142C11.0869 54.3284 11.0869 53.3856 11.0869 51.5V39.5C11.0869 38.5572 11.0869 38.0858 11.3798 37.7929C11.6727 37.5 12.1441 37.5 13.0869 37.5Z" fill="#7E869E" fill-opacity="0.25"/>
<path d="M20.7434 21.8435C21.0547 21.5322 21.2104 21.3766 21.392 21.2652C21.5531 21.1666 21.7286 21.0938 21.9123 21.0497C22.1195 21 22.3396 21 22.7798 21H50.394C50.8342 21 51.0544 21 51.2615 21.0497C51.4452 21.0938 51.6208 21.1666 51.7818 21.2652C51.9635 21.3766 52.1191 21.5322 52.4304 21.8435L62.7434 32.1565C63.0547 32.4678 63.2104 32.6234 63.3217 32.8051C63.4204 32.9661 63.4931 33.1417 63.5372 33.3254C63.5869 33.5325 63.5869 33.7527 63.5869 34.1929V54.12C63.5869 55.1281 63.5869 55.6321 63.3907 56.0172C63.2182 56.3559 62.9428 56.6312 62.6041 56.8038C62.2191 57 61.715 57 60.7069 57H12.4669C11.4588 57 10.9548 57 10.5697 56.8038C10.231 56.6312 9.95567 56.3559 9.7831 56.0172C9.58691 55.6321 9.58691 55.1281 9.58691 54.12V34.1929C9.58691 33.7527 9.58691 33.5325 9.63665 33.3254C9.68074 33.1417 9.75347 32.9661 9.85216 32.8051C9.96348 32.6234 10.1191 32.4678 10.4304 32.1565L20.7434 21.8435Z" fill="#7E869E" fill-opacity="0.25"/>
<path d="M62.0869 37.5H51.5284C50.8327 37.5 50.4849 37.5 50.223 37.6888C49.9611 37.8775 49.8511 38.2075 49.6311 38.8675L47.5428 45.1325C47.3228 45.7925 47.2128 46.1225 46.9509 46.3112C46.689 46.5 46.3411 46.5 45.6454 46.5H27.5284C26.8327 46.5 26.4849 46.5 26.223 46.3112C25.9611 46.1225 25.8511 45.7925 25.6311 45.1325L23.5428 38.8675C23.3228 38.2075 23.2128 37.8775 22.9509 37.6888C22.689 37.5 22.3411 37.5 21.6454 37.5H11.0869" stroke="#222222"/>
<path d="M9.58691 55V36.15C9.58691 36.0672 9.65407 36 9.73691 36H23.1454C24.0063 36 24.7705 36.5509 25.0428 37.3675L27.1311 43.6325C27.4033 44.4491 28.1676 45 29.0284 45H44.1454C45.0063 45 45.7705 44.4491 46.0428 43.6325L48.1311 37.3675C48.4033 36.5509 49.1676 36 50.0284 36H63.4369C63.5198 36 63.5869 36.0672 63.5869 36.15V55C63.5869 56.1046 62.6915 57 61.5869 57H11.5869C10.4823 57 9.58691 56.1046 9.58691 55Z" fill="#0088FF"/>
</svg>
