<svg width="73" height="72" viewBox="0 0 73 72" fill="none" xmlns="http://www.w3.org/2000/svg">
<path fill-rule="evenodd" clip-rule="evenodd" d="M20.0869 48H48.5869C54.2438 48 57.0722 48 58.8296 46.2426C60.5869 44.4853 60.5869 41.6569 60.5869 36V21C60.5869 15.3431 60.5869 12.5147 58.8296 10.7574C57.0722 9 54.2438 9 48.5869 9H24.5869C18.9301 9 16.1016 9 14.3443 10.7574C12.5869 12.5147 12.5869 15.3431 12.5869 21V55.5C12.5869 51.3579 15.9448 48 20.0869 48ZM47.5869 24C47.5869 22.8954 46.6915 22 45.5869 22L27.5869 22C26.4823 22 25.5869 22.8954 25.5869 24C25.5869 25.1046 26.4823 26 27.5869 26H45.5869C46.6915 26 47.5869 25.1046 47.5869 24Z" fill="#0088FF"/>
<path d="M58.8296 46.2426L58.1224 45.5355L58.1224 45.5355L58.8296 46.2426ZM58.8296 10.7574L58.1224 11.4645V11.4645L58.8296 10.7574ZM45.5869 22V23V22ZM27.5869 22V21V22ZM27.5869 26L27.5869 27H27.5869V26ZM48.5869 48V47H20.0869V48V49H48.5869V48ZM58.8296 46.2426L58.1224 45.5355C57.4605 46.1974 56.5603 46.5845 55.0373 46.7892C53.4855 46.9979 51.4436 47 48.5869 47V48V49C51.3871 49 53.5878 49.0021 55.3038 48.7714C57.0486 48.5368 58.4412 48.0452 59.5367 46.9497L58.8296 46.2426ZM60.5869 36H59.5869C59.5869 38.8567 59.5848 40.8986 59.3762 42.4504C59.1714 43.9734 58.7844 44.8736 58.1224 45.5355L58.8296 46.2426L59.5367 46.9497C60.6321 45.8543 61.1237 44.4617 61.3583 42.7169C61.589 41.0009 61.5869 38.8002 61.5869 36H60.5869ZM60.5869 21H59.5869V36H60.5869H61.5869V21H60.5869ZM58.8296 10.7574L58.1224 11.4645C58.7844 12.1264 59.1714 13.0266 59.3762 14.5496C59.5848 16.1014 59.5869 18.1433 59.5869 21H60.5869H61.5869C61.5869 18.1998 61.589 15.9991 61.3583 14.2831C61.1237 12.5383 60.6321 11.1457 59.5367 10.0503L58.8296 10.7574ZM48.5869 9V10C51.4436 10 53.4855 10.0021 55.0373 10.2108C56.5603 10.4155 57.4605 10.8026 58.1224 11.4645L58.8296 10.7574L59.5367 10.0503C58.4412 8.9548 57.0486 8.46317 55.3038 8.22859C53.5878 7.99788 51.3871 8 48.5869 8V9ZM24.5869 9V10H48.5869V9V8H24.5869V9ZM14.3443 10.7574L15.0514 11.4645C15.7133 10.8026 16.6135 10.4155 18.1365 10.2108C19.6883 10.0021 21.7302 10 24.5869 10V9V8C21.7868 8 19.586 7.99788 17.87 8.22859C16.1253 8.46317 14.7326 8.9548 13.6372 10.0503L14.3443 10.7574ZM12.5869 21H13.5869C13.5869 18.1433 13.589 16.1014 13.7977 14.5496C14.0024 13.0266 14.3895 12.1264 15.0514 11.4645L14.3443 10.7574L13.6372 10.0503C12.5417 11.1457 12.0501 12.5383 11.8155 14.2831C11.5848 15.9991 11.5869 18.1998 11.5869 21H12.5869ZM12.5869 55.5H13.5869V21H12.5869H11.5869V55.5H12.5869ZM20.0869 48V47C15.3925 47 11.5869 50.8056 11.5869 55.5H12.5869H13.5869C13.5869 51.9101 16.4971 49 20.0869 49V48ZM45.5869 22V23C46.1392 23 46.5869 23.4477 46.5869 24H47.5869H48.5869C48.5869 22.3431 47.2438 21 45.5869 21V22ZM27.5869 22V23L45.5869 23V22V21L27.5869 21V22ZM25.5869 24H26.5869C26.5869 23.4477 27.0346 23 27.5869 23V22V21C25.9301 21 24.5869 22.3431 24.5869 24H25.5869ZM27.5869 26L27.5869 25C27.0346 25 26.5869 24.5523 26.5869 24H25.5869H24.5869C24.5869 25.6569 25.9301 27 27.5869 27L27.5869 26ZM45.5869 26V25H27.5869V26V27H45.5869V26ZM47.5869 24H46.5869C46.5869 24.5523 46.1392 25 45.5869 25V26V27C47.2438 27 48.5869 25.6569 48.5869 24H47.5869ZM33.5869 63V62H20.0869V63V64H33.5869V63ZM12.5869 55.5H11.5869C11.5869 60.1944 15.3925 64 20.0869 64V63V62C16.4971 62 13.5869 59.0899 13.5869 55.5H12.5869Z" fill="#0088FF"/>
<path d="M60.5869 63H30.5869" stroke="#FEBC2F" stroke-width="2" stroke-linecap="round"/>
</svg>
