<svg width="73" height="72" viewBox="0 0 73 72" fill="none" xmlns="http://www.w3.org/2000/svg">
<path d="M47.0869 31.5L38.0869 40.5L32.0869 34.5L23.0869 43.5" stroke="#FEBC2F" stroke-width="3.5" stroke-linecap="round" stroke-linejoin="round"/>
<path d="M42.5869 15H15.7869C14.6668 15 14.1068 15 13.6789 15.218C13.3026 15.4097 12.9966 15.7157 12.8049 16.092C12.5869 16.5198 12.5869 17.0799 12.5869 18.2V56.8C12.5869 57.9201 12.5869 58.4802 12.8049 58.908C12.9966 59.2843 13.3026 59.5903 13.6789 59.782C14.1068 60 14.6668 60 15.7869 60H54.3869C55.507 60 56.0671 60 56.4949 59.782C56.8712 59.5903 57.1772 59.2843 57.3689 58.908C57.5869 58.4802 57.5869 57.9201 57.5869 56.8V30" stroke="#0088FF" stroke-width="3.5" stroke-linecap="round"/>
<circle cx="57.5869" cy="15" r="6" fill="#27C840"/>
</svg>
