<svg width="73" height="72" viewBox="0 0 73 72" fill="none" xmlns="http://www.w3.org/2000/svg">
<path d="M45.5869 9C54.0722 9 58.3151 8.9997 60.9512 11.6357C63.5872 14.2718 63.5869 18.5147 63.5869 27V57C63.5869 59.8284 63.5867 61.2424 62.708 62.1211C61.8293 62.9998 60.4153 63 57.5869 63H27.5869C19.1016 63 14.8587 63.0003 12.2227 60.3643C9.58662 57.7282 9.58691 53.4853 9.58691 45V27C9.58691 18.5147 9.58662 14.2718 12.2227 11.6357C14.8587 8.9997 19.1016 9 27.5869 9H45.5869ZM36.5869 43C35.4823 43 34.5869 43.8954 34.5869 45C34.5869 46.1046 35.4823 47 36.5869 47H45.5869C46.6915 47 47.5869 46.1046 47.5869 45C47.5869 43.8954 46.6915 43 45.5869 43H36.5869ZM27.5869 31C26.4823 31 25.5869 31.8954 25.5869 33C25.5869 34.1046 26.4823 35 27.5869 35H45.5869C46.6915 35 47.5869 34.1046 47.5869 33C47.5869 31.8954 46.6915 31 45.5869 31H27.5869Z" fill="#FEBC2F"/>
</svg>
