<svg width="73" height="72" viewBox="0 0 73 72" fill="none" xmlns="http://www.w3.org/2000/svg">
<path d="M66.5869 24L68.0011 22.5858L69.4153 24L68.0011 25.4142L66.5869 24ZM36.5869 26C35.4823 26 34.5869 25.1046 34.5869 24C34.5869 22.8954 35.4823 22 36.5869 22V24V26ZM54.5869 12L56.0011 10.5858L68.0011 22.5858L66.5869 24L65.1727 25.4142L53.1727 13.4142L54.5869 12ZM66.5869 24L68.0011 25.4142L56.0011 37.4142L54.5869 36L53.1727 34.5858L65.1727 22.5858L66.5869 24ZM66.5869 24V26H36.5869V24V22H66.5869V24Z" fill="#0088FF"/>
<path d="M6.58691 48L5.1727 46.5858L3.75849 48L5.1727 49.4142L6.58691 48ZM63.5869 50C64.6915 50 65.5869 49.1046 65.5869 48C65.5869 46.8954 64.6915 46 63.5869 46L63.5869 48L63.5869 50ZM18.5869 36L17.1727 34.5858L5.1727 46.5858L6.58691 48L8.00113 49.4142L20.0011 37.4142L18.5869 36ZM6.58691 48L5.1727 49.4142L17.1727 61.4142L18.5869 60L20.0011 58.5858L8.00113 46.5858L6.58691 48ZM6.58691 48L6.58691 50L63.5869 50L63.5869 48L63.5869 46L6.58691 46L6.58691 48Z" fill="#27C840"/>
</svg>
