<svg width="73" height="72" viewBox="0 0 73 72" fill="none" xmlns="http://www.w3.org/2000/svg">
<path d="M35.6925 9.44721L14.3758 20.1056C13.5952 20.4958 13.2049 20.691 13.2049 21C13.2049 21.309 13.5952 21.5042 14.3758 21.8944L35.6925 32.5528C36.1314 32.7722 36.3508 32.882 36.5869 32.882C36.823 32.882 37.0424 32.7722 37.4813 32.5528L58.7981 21.8944C59.5786 21.5042 59.9689 21.309 59.9689 21C59.9689 20.691 59.5786 20.4958 58.7981 20.1056L37.4813 9.44721C37.0424 9.22776 36.823 9.11803 36.5869 9.11803C36.3508 9.11803 36.1314 9.22776 35.6925 9.44721Z" fill="#0088FF"/>
<path d="M58.7977 35.1064C59.5783 35.4967 59.9686 35.692 59.9686 36.001C59.9685 36.3099 59.5782 36.5053 58.7977 36.8955L37.4813 47.5537C37.0425 47.7731 36.8228 47.8828 36.5868 47.8828C36.3508 47.8828 36.1311 47.7731 35.6923 47.5537L14.3759 36.8955C13.5954 36.5053 13.2051 36.3099 13.205 36.001C13.205 35.692 13.5953 35.4967 14.3759 35.1064L21.5858 31.502L34.7977 38.1074C35.6755 38.5463 36.1147 38.7656 36.5868 38.7656C37.0589 38.7656 37.4981 38.5463 38.3759 38.1074L51.5868 31.502L58.7977 35.1064Z" fill="#FEBC2F"/>
<path d="M58.7977 50.1055C59.5782 50.4957 59.9685 50.691 59.9686 51C59.9686 51.309 59.5783 51.5043 58.7977 51.8945L37.4813 62.5527C37.0424 62.7722 36.8229 62.8818 36.5868 62.8818C36.3508 62.8818 36.1311 62.7721 35.6923 62.5527L14.3759 51.8945C13.5953 51.5043 13.205 51.309 13.205 51C13.2051 50.691 13.5954 50.4957 14.3759 50.1055L21.5839 46.502L34.7977 53.1074C35.6754 53.5463 36.1147 53.7665 36.5868 53.7666C37.0589 53.7666 37.498 53.5463 38.3759 53.1074L51.5887 46.502L58.7977 50.1055Z" fill="#27C840"/>
</svg>
