<svg width="73" height="72" viewBox="0 0 73 72" fill="none" xmlns="http://www.w3.org/2000/svg">
<path d="M54.5869 40.5H60.0869C61.0297 40.5 61.5011 40.5 61.794 40.2071C62.0869 39.9142 62.0869 39.4428 62.0869 38.5V23.5C62.0869 21.6144 62.0869 20.6716 61.5011 20.0858C60.9153 19.5 59.9725 19.5 58.0869 19.5H15.0869C13.2013 19.5 12.2585 19.5 11.6727 20.0858C11.0869 20.6716 11.0869 21.6144 11.0869 23.5V39.5C11.0869 39.9714 11.0869 40.2071 11.2334 40.3536C11.3798 40.5 11.6155 40.5 12.0869 40.5H18.5869" stroke="#0088FF" stroke-width="3"/>
<path d="M20.0869 60.8063L20.0869 30.5C20.0869 29.5572 20.0869 29.0858 20.3798 28.7929C20.6727 28.5 21.1441 28.5 22.0869 28.5L51.0869 28.5C52.0297 28.5 52.5011 28.5 52.794 28.7929C53.0869 29.0858 53.0869 29.5572 53.0869 30.5L53.0869 60.8063C53.0869 61.1228 53.0869 61.2811 52.9831 61.356C52.8793 61.4308 52.7291 61.3807 52.4288 61.2806L44.2607 58.5579C44.1747 58.5293 44.1317 58.5149 44.0874 58.5162C44.0431 58.5175 44.001 58.5344 43.9169 58.568L36.7726 61.4257C36.6809 61.4624 36.6351 61.4807 36.5869 61.4807C36.5388 61.4807 36.4929 61.4624 36.4012 61.4257L29.257 58.568C29.1728 58.5344 29.1308 58.5175 29.0864 58.5162C29.0421 58.5149 28.9991 58.5293 28.9132 58.5579L20.745 61.2806C20.4447 61.3807 20.2946 61.4308 20.1907 61.356C20.0869 61.2811 20.0869 61.1228 20.0869 60.8063Z" stroke="#FEBC2F" stroke-width="3"/>
<path d="M29.0869 40.5L41.0869 40.5" stroke="#0088FF" stroke-width="2" stroke-linecap="round"/>
<path d="M29.0869 49.5L44.0869 49.5" stroke="#27C840" stroke-width="2" stroke-linecap="round"/>
<path d="M53.0869 19.5V11.1C53.0869 9.40294 53.0869 8.55442 52.5597 8.02721C52.0325 7.5 51.184 7.5 49.4869 7.5H23.6869C21.9899 7.5 21.1413 7.5 20.6141 8.02721C20.0869 8.55442 20.0869 9.40294 20.0869 11.1V19.5" stroke="#0088FF" stroke-width="3"/>
</svg>
