<svg width="73" height="72" viewBox="0 0 73 72" fill="none" xmlns="http://www.w3.org/2000/svg">
<path d="M40.7764 6C41.6365 6 42.0668 6.0003 42.3525 6.25879C42.6382 6.51732 42.6811 6.94503 42.7666 7.80078L43.4648 14.7871C43.6281 16.4206 43.7099 17.2378 44.2627 17.4668C44.8155 17.6958 45.4511 17.1761 46.7217 16.1367L52.1572 11.6895C52.8225 11.1452 53.1554 10.8735 53.54 10.8926C53.9248 10.9118 54.229 11.2153 54.8369 11.8232L60.7627 17.749C61.371 18.3573 61.6751 18.662 61.6943 19.0469C61.7134 19.4316 61.4411 19.7641 60.8965 20.4297L56.4512 25.8633C55.4117 27.1337 54.8913 27.7695 55.1201 28.3223C55.3491 28.8751 56.1664 28.9566 57.7998 29.1201L64.7861 29.8193C65.642 29.905 66.0696 29.9487 66.3281 30.2344C66.5865 30.52 66.5869 30.9497 66.5869 31.8096V40.1895C66.5869 41.0496 66.5866 41.4799 66.3281 41.7656C66.0696 42.0513 65.6419 42.0942 64.7861 42.1797L57.8008 42.8779C56.1672 43.0412 55.3501 43.123 55.1211 43.6758C54.8921 44.2286 55.4126 44.8641 56.4521 46.1348L60.8965 51.5684C61.441 52.234 61.7134 52.5664 61.6943 52.9512C61.6751 53.336 61.3709 53.6408 60.7627 54.249L54.8379 60.1738C54.2296 60.7821 53.9249 61.0863 53.54 61.1055C53.1553 61.1246 52.8228 60.8522 52.1572 60.3076L46.7217 55.8613C45.451 54.8217 44.8155 54.3013 44.2627 54.5303C43.7099 54.7593 43.6281 55.5764 43.4648 57.21L42.7666 64.1992C42.6811 65.055 42.6382 65.4827 42.3525 65.7412C42.0668 65.9997 41.6365 66 40.7764 66H32.3965C31.5366 66 31.1069 65.9996 30.8213 65.7412C30.5356 65.4827 30.4919 65.0551 30.4062 64.1992L29.707 57.2129C29.5435 55.5795 29.462 54.7621 28.9092 54.5332C28.3564 54.3043 27.7206 54.8247 26.4502 55.8643L21.0166 60.3096C20.3511 60.8541 20.0185 61.1265 19.6338 61.1074C19.2489 61.0882 18.9442 60.7841 18.3359 60.1758L12.4102 54.25C11.8023 53.6421 11.4987 53.3378 11.4795 52.9531C11.4604 52.5685 11.7321 52.2356 12.2764 51.5703L16.7236 46.1348C17.763 44.8642 18.2827 44.2286 18.0537 43.6758C17.8247 43.123 17.0075 43.0412 15.374 42.8779L8.3877 42.1797C7.53195 42.0942 7.10423 42.0513 6.8457 41.7656C6.58722 41.4799 6.58691 41.0496 6.58691 40.1895V31.8096C6.58691 30.9497 6.58729 30.52 6.8457 30.2344C7.10422 29.9487 7.53193 29.9059 8.3877 29.8203L15.375 29.1211C17.0085 28.9577 17.8257 28.8761 18.0547 28.3232C18.2837 27.7704 17.7632 27.1348 16.7236 25.8643L12.2773 20.4287C11.7328 19.7631 11.4604 19.4306 11.4795 19.0459C11.4987 18.6611 11.8029 18.3563 12.4111 17.748L18.3359 11.8232C18.9442 11.215 19.249 10.9108 19.6338 10.8916C20.0185 10.8725 20.351 11.1449 21.0166 11.6895L26.4512 16.1357C27.7217 17.1752 28.3574 17.6948 28.9102 17.4658C29.463 17.2368 29.5446 16.4196 29.708 14.7861L30.4072 7.80078C30.4928 6.94501 30.5356 6.51731 30.8213 6.25879C31.1069 6.00038 31.5366 6 32.3965 6H40.7764Z" fill="#97C9F5"/>
<circle cx="36.5869" cy="36" r="9" fill="white"/>
</svg>
